<?xml version="1.0" standalone="no"?>
<!DOCTYPE svg PUBLIC "-//W3C//DTD SVG 20010904//EN"
 "http://www.w3.org/TR/2001/REC-SVG-20010904/DTD/svg10.dtd">
<svg version="1.0" xmlns="http://www.w3.org/2000/svg"
 width="96.000000pt" height="96.000000pt" viewBox="0 0 96.000000 96.000000"
 preserveAspectRatio="xMidYMid meet">
<metadata>
Created by potrace 1.14, written by Peter Selinger 2001-2017
</metadata>
<g transform="translate(0.000000,96.000000) scale(0.100000,-0.100000)"
fill="#000000" stroke="none">
<path d="M62 906 c-13 -7 -32 -26 -43 -42 -18 -27 -19 -50 -19 -384 0 -334 1
-357 19 -384 37 -56 34 -55 461 -56 512 0 479 -17 479 250 0 147 -1 162 -13
134 -8 -17 -25 -40 -40 -51 -25 -20 -26 -25 -26 -125 0 -68 -4 -108 -12 -116
-17 -17 -759 -17 -776 0 -8 8 -12 48 -12 114 l0 103 34 -6 c50 -8 102 13 133
54 26 34 28 43 31 164 3 93 1 133 -8 144 -11 13 2 15 102 15 75 0 118 -4 126
-12 19 -19 16 -241 -4 -280 -16 -31 -16 -32 12 -55 34 -27 80 -38 124 -28 44
10 98 60 110 103 13 48 13 228 0 253 -10 18 -6 19 93 19 67 0 107 -4 115 -12
19 -19 16 115 -3 152 -31 59 -36 60 -467 60 -300 -1 -398 -4 -416 -14z"/>
</g>
</svg>
